<svg id="Capa_1" data-name="Capa 1" xmlns="http://www.w3.org/2000/svg" viewBox="0 0 217.22 54.94"><defs><style>.cls-1{fill:#1d1d1b;stroke:#1d1d1b;stroke-miterlimit:10;}</style></defs><path class="cls-1" d="M22.54,41.27a18.69,18.69,0,0,1-8.06,1.63C6,42.9.5,37.15.5,28.57s5.92-14.9,15.08-14.9a17,17,0,0,1,7.08,1.45L21.5,19.06a11.83,11.83,0,0,0-5.92-1.33c-6.44,0-9.92,4.75-9.92,10.61,0,6.49,4.18,10.5,9.75,10.5a14.44,14.44,0,0,0,6.26-1.4Z"/><path class="cls-1" d="M41.16,42.32l-.41-3.54h-.17A10.47,10.47,0,0,1,32,43c-5.68,0-8.58-4-8.58-8.06,0-6.78,6-10.49,16.88-10.44v-.58c0-2.32-.64-6.49-6.38-6.49a14,14,0,0,0-7.31,2.09L25.44,16.1a17.39,17.39,0,0,1,9.22-2.49c8.59,0,10.67,5.86,10.67,11.48v10.5a39.4,39.4,0,0,0,.47,6.73ZM40.4,28c-5.56-.11-11.89.87-11.89,6.32a4.53,4.53,0,0,0,4.82,4.88,7,7,0,0,0,6.78-4.7,5.14,5.14,0,0,0,.29-1.63Z"/><path class="cls-1" d="M68,42.32V18.13H56.24V42.32H51.19V18.13H47.25V14.25h3.94v-.93c0-4,.93-7.37,3.13-9.57A9.59,9.59,0,0,1,61.4,1.14a9,9,0,0,1,4,1l-1,3.77a7.64,7.64,0,0,0-3-.69c-4,0-5.1,3.42-5.1,7.83v1.22H68V12.91c0-3.94.93-7.54,3.31-9.8A9.69,9.69,0,0,1,78.1.5a11.67,11.67,0,0,1,4.35.81l-.64,4a7.84,7.84,0,0,0-3.3-.64c-4.29,0-5.45,3.83-5.45,8.12v1.51h6.78v3.88H73.11V42.32Z"/><path class="cls-1" d="M97.13,42.32l-.41-3.54h-.17A10.48,10.48,0,0,1,88,43c-5.68,0-8.58-4-8.58-8.06,0-6.78,6-10.49,16.88-10.44v-.58c0-2.32-.64-6.49-6.38-6.49a14,14,0,0,0-7.31,2.09L81.41,16.1a17.39,17.39,0,0,1,9.22-2.49c8.58,0,10.67,5.86,10.67,11.48v10.5a39.4,39.4,0,0,0,.47,6.73ZM96.37,28c-5.57-.11-11.89.87-11.89,6.32a4.53,4.53,0,0,0,4.82,4.88,7,7,0,0,0,6.78-4.7,5.14,5.14,0,0,0,.29-1.63Z"/><path class="cls-1" d="M130.82,14.25c-.11,2-.23,4.29-.23,7.71v16.3c0,6.43-1.27,10.38-4,12.81s-6.67,3.37-10.21,3.37c-3.36,0-7.07-.81-9.34-2.32l1.28-3.89a15.85,15.85,0,0,0,8.24,2.21c5.22,0,9-2.73,9-9.81V37.5h-.11a10,10,0,0,1-8.93,4.7c-7,0-12-5.91-12-13.69,0-9.51,6.2-14.9,12.64-14.9,4.87,0,7.54,2.55,8.76,4.87h.12l.23-4.23Zm-5.27,11.07a7.46,7.46,0,0,0-7.43-7.71c-4.87,0-8.35,4.12-8.35,10.61,0,5.51,2.78,10.09,8.29,10.09a7.46,7.46,0,0,0,7.08-5.21,8.91,8.91,0,0,0,.41-2.73Z"/><path class="cls-1" d="M135.81,23c0-3.3-.06-6.14-.23-8.75h4.47l.17,5.51h.23c1.28-3.77,4.35-6.15,7.77-6.15a5.77,5.77,0,0,1,1.45.17V18.6a7.39,7.39,0,0,0-1.74-.18c-3.59,0-6.14,2.73-6.84,6.56a13.8,13.8,0,0,0-.23,2.37v15h-5.05Z"/><path class="cls-1" d="M167.13,42.32l-.4-3.54h-.18A10.45,10.45,0,0,1,158,43c-5.69,0-8.59-4-8.59-8.06,0-6.78,6-10.49,16.88-10.44v-.58c0-2.32-.64-6.49-6.38-6.49a14,14,0,0,0-7.31,2.09l-1.16-3.37a17.43,17.43,0,0,1,9.23-2.49c8.58,0,10.67,5.86,10.67,11.48v10.5a39.46,39.46,0,0,0,.46,6.73ZM166.38,28c-5.57-.11-11.89.87-11.89,6.32a4.52,4.52,0,0,0,4.81,4.88,7,7,0,0,0,6.79-4.7,5.43,5.43,0,0,0,.29-1.63Z"/><path class="cls-1" d="M176.64,21.84c0-2.9,0-5.27-.23-7.59h4.47l.23,4.52h.17a9.68,9.68,0,0,1,8.82-5.16,8.31,8.31,0,0,1,8,5.62h.11a11.61,11.61,0,0,1,3.13-3.65,9.58,9.58,0,0,1,6.21-2c3.71,0,9.22,2.43,9.22,12.18V42.32h-5V26.43c0-5.4-2-8.65-6.09-8.65a6.61,6.61,0,0,0-6,4.64,8.54,8.54,0,0,0-.4,2.56V42.32h-5V25.5c0-4.47-2-7.72-5.86-7.72-3.19,0-5.51,2.56-6.32,5.11a7,7,0,0,0-.41,2.49V42.32h-5Z"/></svg>